<svg width="50" height="25" viewBox="0 0 50 25" fill="none" xmlns="http://www.w3.org/2000/svg">
<mask id="path-1-inside-1_148_4941" fill="white">
<path fill-rule="evenodd" clip-rule="evenodd" d="M0.244629 2.11206C0.244629 0.972973 1.16804 0.0495605 2.30713 0.0495605H47.1821C48.3212 0.0495605 49.2446 0.972973 49.2446 2.11206V8.06605C47.0033 8.25998 45.2446 10.1408 45.2446 12.4324C45.2446 14.724 47.0033 16.6048 49.2446 16.7987V21.9871C49.2446 23.1261 48.3212 24.0496 47.1821 24.0496H2.30713C1.16804 24.0496 0.244629 23.1261 0.244629 21.9871V16.7721C2.37295 16.4721 4.01025 14.6434 4.01025 12.4324C4.01025 10.2213 2.37295 8.39264 0.244629 8.09268V2.11206Z"/>
</mask>
<path fill-rule="evenodd" clip-rule="evenodd" d="M0.244629 2.11206C0.244629 0.972973 1.16804 0.0495605 2.30713 0.0495605H47.1821C48.3212 0.0495605 49.2446 0.972973 49.2446 2.11206V8.06605C47.0033 8.25998 45.2446 10.1408 45.2446 12.4324C45.2446 14.724 47.0033 16.6048 49.2446 16.7987V21.9871C49.2446 23.1261 48.3212 24.0496 47.1821 24.0496H2.30713C1.16804 24.0496 0.244629 23.1261 0.244629 21.9871V16.7721C2.37295 16.4721 4.01025 14.6434 4.01025 12.4324C4.01025 10.2213 2.37295 8.39264 0.244629 8.09268V2.11206Z" fill="white"/>
<path d="M49.2446 8.06605L49.3308 9.06233L50.2446 8.98326V8.06605H49.2446ZM49.2446 16.7987H50.2446V15.8815L49.3308 15.8024L49.2446 16.7987ZM0.244629 16.7721L0.10507 15.7819L-0.755371 15.9031V16.7721H0.244629ZM0.244629 8.09268H-0.755371V8.96162L0.10507 9.08289L0.244629 8.09268ZM2.30713 -0.950439C0.615757 -0.950439 -0.755371 0.420689 -0.755371 2.11206H1.24463C1.24463 1.52526 1.72033 1.04956 2.30713 1.04956V-0.950439ZM47.1821 -0.950439H2.30713V1.04956H47.1821V-0.950439ZM50.2446 2.11206C50.2446 0.420689 48.8735 -0.950439 47.1821 -0.950439V1.04956C47.7689 1.04956 48.2446 1.52526 48.2446 2.11206H50.2446ZM50.2446 8.06605V2.11206H48.2446V8.06605H50.2446ZM46.2446 12.4324C46.2446 10.6642 47.602 9.21192 49.3308 9.06233L49.1584 7.06977C46.4047 7.30804 44.2446 9.61741 44.2446 12.4324H46.2446ZM49.3308 15.8024C47.602 15.6528 46.2446 14.2006 46.2446 12.4324H44.2446C44.2446 15.2473 46.4047 17.5567 49.1584 17.795L49.3308 15.8024ZM50.2446 21.9871V16.7987H48.2446V21.9871H50.2446ZM47.1821 25.0496C48.8735 25.0496 50.2446 23.6784 50.2446 21.9871H48.2446C48.2446 22.5739 47.7689 23.0496 47.1821 23.0496V25.0496ZM2.30713 25.0496H47.1821V23.0496H2.30713V25.0496ZM-0.755371 21.9871C-0.755371 23.6784 0.615758 25.0496 2.30713 25.0496V23.0496C1.72033 23.0496 1.24463 22.5739 1.24463 21.9871H-0.755371ZM-0.755371 16.7721V21.9871H1.24463V16.7721H-0.755371ZM3.01025 12.4324C3.01025 14.1381 1.74684 15.5505 0.10507 15.7819L0.384188 17.7623C2.99906 17.3937 5.01025 15.1488 5.01025 12.4324H3.01025ZM0.10507 9.08289C1.74684 9.31428 3.01025 10.7266 3.01025 12.4324H5.01025C5.01025 9.71596 2.99906 7.471 0.384188 7.10246L0.10507 9.08289ZM-0.755371 2.11206V8.09268H1.24463V2.11206H-0.755371Z" fill="#FF3B49" mask="url(#path-1-inside-1_148_4941)"/>
</svg>
